HIERARCHY
ROOT Hips
{
	OFFSET 0.00 0.00 0.00
	CHANNELS 6 Xposition Yposition Zposition Xrotation Yrotation Zrotation
	JOINT Spine
	{
		OFFSET 0.00000 7.06766 0.00000
		CHANNELS 3 Xrotation Yrotation Zrotation
		JOINT Head
		{
			OFFSET 0.00000 15.03989 0.00000
			CHANNELS 3 Xrotation Yrotation Zrotation
			End Site
			{
				OFFSET 0.00000 4.52755 0.00000
			}
		}
		JOINT LeftShoulder
		{
			OFFSET 0.00000 10.53037 0.00000
			CHANNELS 3 Xrotation Yrotation Zrotation
			JOINT LeftArm
			{
				OFFSET 7.02886 0.00000 0.00000
				CHANNELS 3 Xrotation Yrotation Zrotation
				JOINT LeftForeArm
				{
					OFFSET 10.79770 0.00000 0.00000
					CHANNELS 3 Yrotation Zrotation Xrotation
					JOINT LeftHand
					{
						OFFSET 7.90744 0.00000 0.00000
						CHANNELS 3 Xrotation Yrotation Zrotation
						JOINT LeftHandThumb1
						{
							OFFSET 0.00000 0.00000 0.00000
							CHANNELS 3 Xrotation Zrotation Yrotation
							End Site
							{
								OFFSET 0.00000 0.00000 3.93700
							}
						}
						End Site
						{
							OFFSET 3.93700 0.00000 0.00000
						}
					}
				}
			}
		}
		JOINT RightShoulder
		{
			OFFSET 0.00000 10.53037 0.00000
			CHANNELS 3 Xrotation Yrotation Zrotation
			JOINT RightArm
			{
				OFFSET -7.02886 0.00000 0.00000
				CHANNELS 3 Xrotation Yrotation Zrotation
				JOINT RightForeArm
				{
					OFFSET -10.79770 0.00000 0.00000
					CHANNELS 3 Yrotation Zrotation Xrotation
					JOINT RightHand
					{
						OFFSET -7.90744 0.00000 0.00000
						CHANNELS 3 Xrotation Yrotation Zrotation
						JOINT RightHandThumb1
						{
							OFFSET 0.00000 0.00000 0.00000
							CHANNELS 3 Xrotation Zrotation Yrotation
							End Site
							{
								OFFSET 0.00000 0.00000 3.93700
							}
						}
						End Site
						{
							OFFSET -3.93700 0.00000 0.00000
						}
					}
				}
			}
		}
	}
	JOINT LeftUpLeg
	{
		OFFSET 4.01300 0.00000 0.00000
		CHANNELS 3 Xrotation Yrotation Zrotation
		JOINT LeftLeg
		{
			OFFSET 0.00000 -16.89976 0.00000
			CHANNELS 3 Xrotation Yrotation Zrotation
			JOINT LeftFoot
			{
				OFFSET 0.00000 -17.38918 0.00000
				CHANNELS 3 Xrotation Yrotation Zrotation
				JOINT LeftToeBase
				{
					OFFSET 0.00000 -1.27456 4.75673
					CHANNELS 3 Xrotation Yrotation Zrotation
					End Site
					{
						OFFSET 0.00000 0.00000 2.95275
					}
				}
			}
		}
	}
	JOINT RightUpLeg
	{
		OFFSET -4.01300 0.00000 0.00000
		CHANNELS 3 Xrotation Yrotation Zrotation
		JOINT RightLeg
		{
			OFFSET 0.00000 -16.89976 0.00000
			CHANNELS 3 Xrotation Yrotation Zrotation
			JOINT RightFoot
			{
				OFFSET 0.00000 -17.38918 0.00000
				CHANNELS 3 Xrotation Yrotation Zrotation
				JOINT RightToeBase
				{
					OFFSET 0.00000 -1.27456 4.75673
					CHANNELS 3 Xrotation Yrotation Zrotation
					End Site
					{
						OFFSET 0.00000 0.00000 2.95275
					}
				}
			}
		}
	}
}
MOTION
Frames: 15
Frame Time: 0.008333
 19.3791 35.6225 -22.7576 173.1005 -0.9182 179.1930 -19.2036 -0.1559 -0.6525 9.2654 -0.7855 1.8192 -31.7913 1.2913 13.9041 3.2257 -5.1766 -10.7847 3.1720 0.0000 3.2359 0.8274 8.8608 -5.3565 33.1476 -0.0000 26.2537 5.6131 -11.1908 -6.6852 -37.0298 3.9033 11.7830 4.3988 -0.0000 31.7047 0.8534 -6.6744 7.3030 32.8623 0.0000 -24.3270 0.4382 10.2989 2.4975 -4.4959 0.0000 0.0000 -16.2663 29.0577 0.5141 23.8812 -0.0000 0.0000 -0.3304 -7.9910 -1.2375 -2.0531 -0.0000 -0.0000 -16.6371 -29.4640 2.3985 22.9963 -0.0000 -0.0000
 19.3819 35.6223 -22.7593 173.0964 -0.9369 179.1872 -19.2058 -0.1556 -0.6583 9.2630 -0.7986 1.8595 -31.8300 1.2525 13.9050 3.2401 -5.1417 -10.7775 3.1462 0.0000 3.2284 0.8290 8.8851 -5.3523 33.1476 -0.0000 26.2537 5.5906 -11.1838 -6.6917 -37.0109 3.8528 11.7742 4.4132 -0.0000 31.7127 0.8558 -6.6787 7.3188 32.8623 0.0000 -24.3270 0.4357 10.2892 2.5077 -4.5033 -0.0000 0.0000 -16.2730 29.0497 0.5300 23.9011 0.0000 -0.0000 -0.3205 -8.0131 -1.2261 -2.0719 0.0000 0.0000 -16.6224 -29.4785 2.3954 23.2469 0.0000 -0.0000
 19.3843 35.6224 -22.7604 173.0935 -0.9514 179.1826 -19.2098 -0.1501 -0.6632 9.2791 -0.8194 1.8913 -31.8528 1.2225 13.8962 3.2002 -5.1316 -10.7648 3.1700 0.0000 3.2589 0.8257 8.8753 -5.3364 33.1476 -0.0000 26.2537 5.5811 -11.1782 -6.7037 -37.0251 3.7949 11.7775 4.4205 -0.0000 31.7374 0.8581 -6.6905 7.3257 32.8623 0.0000 -24.3270 0.4288 10.2897 2.5151 -4.5012 -0.0000 -0.0000 -16.2649 29.0444 0.5260 23.8896 0.0000 0.0000 -0.3140 -8.0057 -1.2186 -2.0751 -0.0000 0.0000 -16.6208 -29.4796 2.4108 22.8928 -0.0000 0.0000
 19.3866 35.6220 -22.7613 173.0980 -0.9708 179.1824 -19.1970 -0.1570 -0.6774 9.2703 -0.8309 1.9291 -31.8630 1.2040 13.9168 3.1810 -5.1120 -10.7746 3.1518 0.0000 3.2227 0.8246 8.8900 -5.3210 33.1476 -0.0000 26.2537 5.5618 -11.1665 -6.7061 -37.0096 3.7519 11.7738 4.4225 -0.0000 31.7079 0.8575 -6.7062 7.3041 32.8623 0.0000 -24.3270 0.4367 10.2729 2.5170 -4.5129 -0.0000 -0.0000 -16.2685 29.0545 0.5230 23.9354 -0.0000 0.0000 -0.3061 -8.0274 -1.2156 -2.0720 0.0000 -0.0000 -16.6350 -29.4758 2.4058 22.9537 0.0000 -0.0000
 19.3883 35.6220 -22.7625 173.0995 -0.9876 179.1841 -19.1897 -0.1562 -0.6904 9.2640 -0.8291 1.9660 -31.8766 1.1821 13.9099 3.1521 -5.0955 -10.7541 3.1662 0.0000 3.2252 0.8231 8.8939 -5.3090 33.1476 -0.0000 26.2537 5.5322 -11.1654 -6.7110 -37.0068 3.7181 11.7756 4.4122 -0.0000 31.7034 0.8556 -6.7058 7.2881 32.8623 0.0000 -24.3270 0.4420 10.2756 2.5158 -4.5229 0.0000 0.0000 -16.2496 29.0404 0.5109 23.9128 -0.0000 0.0000 -0.2978 -8.0465 -1.2160 -2.0853 -0.0000 -0.0000 -16.7252 -29.4613 2.2198 23.2823 -0.0000 0.0000
 19.3911 35.6221 -22.7633 173.0978 -1.0059 179.1767 -19.1871 -0.1684 -0.6941 9.2622 -0.8619 1.9826 -31.9026 1.1545 13.9164 3.1673 -5.0708 -10.7453 3.1622 0.0000 3.1967 0.8201 8.8762 -5.3002 33.1476 -0.0000 26.2537 5.5099 -11.1576 -6.7200 -37.0128 3.6780 11.7840 4.4085 -0.0000 31.7158 0.8552 -6.6940 7.2972 32.8623 0.0000 -24.3270 0.4370 10.2770 2.5272 -4.5235 -0.0000 -0.0000 -16.2501 29.0295 0.4908 23.9567 0.0000 -0.0000 -0.2915 -8.0347 -1.2033 -2.0843 -0.0000 0.0000 -16.6504 -29.5220 2.3854 23.0148 -0.0000 0.0000
 19.3938 35.6219 -22.7643 173.0957 -1.0255 179.1711 -19.1871 -0.1796 -0.6959 9.2572 -0.8923 1.9833 -31.8947 1.1358 13.9186 3.1732 -5.0523 -10.7357 3.1405 0.0000 3.1473 0.8119 8.8569 -5.2588 33.1476 -0.0000 26.2537 5.5118 -11.1535 -6.7299 -37.0194 3.6446 11.7931 4.4134 -0.0000 31.7128 0.8584 -6.7349 7.2803 32.8623 0.0000 -24.3270 0.4356 10.2724 2.5355 -4.5309 -0.0000 -0.0000 -16.2317 29.0197 0.5002 23.8673 0.0000 0.0000 -0.2874 -8.0531 -1.1922 -2.0824 0.0000 0.0000 -16.6413 -29.5110 2.4042 22.9155 0.0000 -0.0000
 19.3956 35.6219 -22.7634 173.0936 -1.0437 179.1687 -19.1740 -0.1890 -0.7080 9.2224 -0.8837 2.0229 -31.8615 1.1595 13.9578 3.2090 -5.1160 -10.7603 3.1733 -0.0000 3.0187 0.8060 8.8534 -5.2229 33.1476 -0.0000 26.2537 5.4784 -11.1385 -6.7223 -36.9976 3.6124 11.7732 4.4081 -0.0000 31.7122 0.8565 -6.6964 7.3054 32.8623 0.0000 -24.3270 0.4282 10.2718 2.5399 -4.5327 -0.0000 -0.0000 -16.2342 29.0075 0.4921 23.9435 -0.0000 0.0000 -0.2919 -8.0600 -1.1880 -2.0736 0.0000 0.0000 -16.6624 -29.5064 2.3807 22.9656 0.0000 -0.0000
 19.3972 35.6216 -22.7662 173.0942 -1.0566 179.1629 -19.1680 -0.2034 -0.6981 9.1757 -0.9039 2.0302 -31.8944 1.1431 13.9361 3.1871 -5.0732 -10.7128 3.1393 0.0000 3.1626 0.8210 8.9159 -5.2826 33.1476 -0.0000 26.2537 5.4328 -11.1285 -6.7670 -36.9685 3.5598 11.7987 4.4259 -0.0000 31.7403 0.8569 -6.7024 7.3027 32.8623 0.0000 -24.3270 0.4344 10.2824 2.5476 -4.5434 -0.0000 -0.0000 -16.2304 28.9876 0.4860 23.9497 -0.0000 -0.0000 -0.2792 -8.0782 -1.1804 -2.0898 0.0000 0.0000 -16.6093 -29.5517 2.4715 23.1353 -0.0000 0.0000
 19.3987 35.6212 -22.7667 173.1002 -1.0758 179.1620 -19.1543 -0.2081 -0.7047 9.1781 -0.9341 2.0077 -31.8891 1.1219 13.9349 3.1515 -5.0619 -10.7026 3.1586 0.0000 3.2194 0.8201 8.9175 -5.2763 33.1476 -0.0000 26.2537 5.4034 -11.1131 -6.7780 -36.9138 3.5176 11.7884 4.4383 -0.0000 31.7107 0.8584 -6.7112 7.3063 32.8623 0.0000 -24.3270 0.4379 10.2792 2.5497 -4.5447 0.0000 0.0000 -16.2269 28.9757 0.4871 23.9754 0.0000 -0.0000 -0.2673 -8.0950 -1.1770 -2.0881 -0.0000 -0.0000 -16.6616 -29.5244 2.4101 23.0100 0.0000 -0.0000
 19.4009 35.6212 -22.7674 173.0938 -1.1074 179.1557 -19.1596 -0.2266 -0.7110 9.1842 -0.9562 1.9992 -31.8975 1.0957 13.9397 3.1861 -5.0478 -10.6947 3.1475 0.0000 3.2018 0.8212 8.9113 -5.2863 33.1476 -0.0000 26.2537 5.3921 -11.0910 -6.8010 -36.8772 3.4518 11.7870 4.4491 -0.0000 31.7192 0.8561 -6.6971 7.3016 32.8623 0.0000 -24.3270 0.4266 10.2692 2.5595 -4.5471 0.0000 -0.0000 -16.2253 28.9655 0.4881 23.9621 0.0000 -0.0000 -0.2633 -8.1270 -1.1691 -2.0978 0.0000 -0.0000 -16.6122 -29.5315 2.4720 22.8098 -0.0000 0.0000
 19.4025 35.6213 -22.7681 173.0948 -1.1277 179.1580 -19.1485 -0.2458 -0.7272 9.1576 -0.9714 2.0140 -31.9280 1.0767 13.9608 3.1965 -5.0184 -10.7017 3.1359 0.0000 3.1625 0.8099 8.8824 -5.2307 33.1476 -0.0000 26.2537 5.4087 -11.0783 -6.7868 -36.8535 3.4373 11.7721 4.4631 -0.0000 31.6881 0.8656 -6.7447 7.3307 32.8623 0.0000 -24.3270 0.4291 10.2523 2.5588 -4.5512 -0.0000 0.0000 -16.2133 28.9679 0.4690 23.9236 -0.0000 0.0000 -0.2571 -8.1332 -1.1669 -2.1007 -0.0000 -0.0000 -16.6504 -29.5494 2.3992 23.2416 -0.0000 0.0000
 19.4036 35.6209 -22.7695 173.1157 -1.1477 179.1573 -19.1131 -0.2732 -0.7301 9.1175 -0.9821 2.0054 -31.9275 1.0881 13.9713 3.1498 -5.0167 -10.6954 3.1531 0.0000 3.1834 0.8073 8.8478 -5.2347 33.1476 -0.0000 26.2537 5.4006 -11.0605 -6.8004 -36.8263 3.4258 11.7755 4.4488 -0.0000 31.7303 0.8675 -6.7530 7.3376 32.8623 0.0000 -24.3270 0.4480 10.2618 2.5615 -4.5525 -0.0000 -0.0000 -16.2115 28.9389 0.4627 23.9696 0.0000 -0.0000 -0.2285 -8.1608 -1.1654 -2.1058 0.0000 -0.0000 -16.6361 -29.5476 2.4453 22.8871 0.0000 -0.0000
 19.4054 35.6209 -22.7701 173.1234 -1.1721 179.1514 -19.0896 -0.2884 -0.7300 9.0791 -0.9865 1.9904 -31.9537 1.0857 13.9782 3.1595 -5.0244 -10.6943 3.1490 0.0000 3.1622 0.8086 8.8596 -5.2362 33.1476 -0.0000 26.2537 5.3601 -11.0440 -6.8049 -36.7700 3.3909 11.7490 4.4640 -0.0000 31.7899 0.8711 -6.7398 7.3819 32.8623 0.0000 -24.3270 0.4514 10.2580 2.5713 -4.5551 -0.0000 -0.0000 -16.2069 28.9270 0.4601 23.9922 0.0000 -0.0000 -0.2113 -8.1817 -1.1546 -2.1099 0.0000 0.0000 -16.6583 -29.5323 2.4106 22.9263 0.0000 -0.0000
 19.4061 35.6209 -22.7710 173.1183 -1.1874 179.1551 -19.0983 -0.2989 -0.7337 9.0853 -0.9993 1.9672 -31.9480 1.0823 13.9794 3.1324 -5.0119 -10.6858 3.1469 0.0000 3.1610 0.8100 8.8321 -5.2609 33.1476 -0.0000 26.2537 5.3717 -11.0356 -6.8176 -36.7508 3.3723 11.7478 4.4549 -0.0000 31.7732 0.8701 -6.7245 7.3898 32.8623 0.0000 -24.3270 0.4470 10.2702 2.5678 -4.5566 -0.0000 -0.0000 -16.1853 28.9057 0.4296 23.9452 0.0000 -0.0000 -0.2115 -8.2088 -1.1570 -2.1120 -0.0000 -0.0000 -16.6609 -29.4977 2.3905 22.9369 -0.0000 0.0000
